<svg xmlns="http://www.w3.org/2000/svg" xmlns:xlink="http://www.w3.org/1999/xlink" viewBox="300.5 465.09 81.91 81.91"><defs><style>.a{fill:url(#a);}.b,.d{fill:none;}.b{stroke:#fff;}.c{stroke:none;}.e{filter:url(#b);}</style><linearGradient id="a" x1="1" y1="-0.103" x2="-0.109" y2="1" gradientUnits="objectBoundingBox"><stop offset="0" stop-color="#ff0035"/><stop offset="1" stop-color="#ffa75a"/></linearGradient><filter id="b" x="300.5" y="465.09" width="81.91" height="81.91" filterUnits="userSpaceOnUse"><feOffset dy="6" input="SourceAlpha"/><feGaussianBlur stdDeviation="3" result="c"/><feFlood flood-opacity="0.161"/><feComposite operator="in" in2="c"/><feComposite in="SourceGraphic"/></filter></defs><g class="e" transform="matrix(1, 0, 0, 1, 0, 0)"><circle class="a" cx="31.955" cy="31.955" r="31.955" transform="translate(309.5 468.09)"/></g><g transform="translate(333.19 486.822)"><g transform="translate(0 8.925)"><path class="b" d="M16.147,14c0,8.216-3.5,14.876-7.823,14.876S.5,22.216.5,14Z" transform="translate(-0.5 -14)"/><g class="b" transform="translate(0 14.325)"><ellipse class="c" cx="7.713" cy="1.102" rx="7.713" ry="1.102"/><ellipse class="d" cx="7.713" cy="1.102" rx="7.213" ry="0.602"/></g></g><path class="b" d="M839.7,493.922s2.063-1.6,2.063.952,1.229,2.591,2.235,1.874" transform="translate(-836.284 -492.325)"/><path class="b" d="M839.7,494.215s2.063-2.545,2.063,1.515,1.229,4.127,2.235,2.985" transform="translate(-832.978 -493.427)"/></g></svg>