<svg xmlns="http://www.w3.org/2000/svg" xmlns:xlink="http://www.w3.org/1999/xlink" viewBox="454 674 130.91 130.91"><defs><style>.a{fill:url(#a);}.b,.e{fill:none;}.b{stroke:#fff;}.c{fill:#fff;}.d{stroke:none;}.f{filter:url(#b);}</style><linearGradient id="a" x1="1" y1="-0.103" x2="-0.109" y2="1" gradientUnits="objectBoundingBox"><stop offset="0" stop-color="#ff0035"/><stop offset="1" stop-color="#ffa75a"/></linearGradient><filter id="b" x="454" y="674" width="130.91" height="130.91" filterUnits="userSpaceOnUse"><feOffset dy="6" input="SourceAlpha"/><feGaussianBlur stdDeviation="3" result="c"/><feFlood flood-opacity="0.161"/><feComposite operator="in" in2="c"/><feComposite in="SourceGraphic"/></filter></defs><g class="f" transform="matrix(1, 0, 0, 1, 0, 0)"><circle class="a" cx="56.455" cy="56.455" r="56.455" transform="translate(463 677)"/></g><g transform="translate(0 -31)"><g transform="translate(6 6)"><g class="b" transform="translate(491 736)"><circle class="d" cx="22.8" cy="22.8" r="22.8"/><circle class="e" cx="22.8" cy="22.8" r="22.3"/></g><circle class="c" cx="10.586" cy="10.586" r="10.586" transform="translate(503.214 748.214)"/></g><g transform="translate(1 2)"><path class="c" d="M4,0C6.209,0,8,3.134,8,7a7.2,7.2,0,0,1-4,7A7.538,7.538,0,0,1,0,7C0,3.134,1.791,0,4,0Z" transform="translate(484 751)"/><path class="b" d="M488,765v14.7" transform="translate(0 -1)"/></g><g transform="translate(-0.008 -2)"><path class="b" d="M546.1,755.7s-1,10.3,3.6,10.3c0,0,3.8.7,3.6-10.3"/><line class="b" y2="26" transform="translate(549.5 755.5)"/></g></g></svg>