<svg xmlns="http://www.w3.org/2000/svg" xmlns:xlink="http://www.w3.org/1999/xlink" viewBox="562 465 81.91 81.91"><defs><style>.a{fill:url(#a);}.b{fill:#fff;}.c{fill:none;stroke:#fff;}.d{filter:url(#b);}</style><linearGradient id="a" x1="1" y1="-0.103" x2="-0.109" y2="1" gradientUnits="objectBoundingBox"><stop offset="0" stop-color="#ff0035"/><stop offset="1" stop-color="#ffa75a"/></linearGradient><filter id="b" x="562" y="465" width="81.91" height="81.91" filterUnits="userSpaceOnUse"><feOffset dy="6" input="SourceAlpha"/><feGaussianBlur stdDeviation="3" result="c"/><feFlood flood-opacity="0.161"/><feComposite operator="in" in2="c"/><feComposite in="SourceGraphic"/></filter></defs><g class="d" transform="matrix(1, 0, 0, 1, 0, 0)"><circle class="a" cx="31.955" cy="31.955" r="31.955" transform="translate(571 468)"/></g><g transform="translate(2 1.5)"><path class="b" d="M12.5,23.4v0C12,15.589.12,6.194,0,6.1,1.582.366,18.43,0,18.6,0c5.6,5.7-5.981,23.221-6.1,23.4Zm-1-9.9A1.5,1.5,0,1,0,13,15,1.5,1.5,0,0,0,11.5,13.5Zm4-3A1.5,1.5,0,1,0,17,12,1.5,1.5,0,0,0,15.5,10.5Zm-7-2A1.5,1.5,0,1,0,10,10,1.5,1.5,0,0,0,8.5,8.5Zm4-2A1.5,1.5,0,1,0,14,8,1.5,1.5,0,0,0,12.5,6.5Zm-8-2A1.5,1.5,0,1,0,6,6,1.5,1.5,0,0,0,4.5,4.5Zm5-1A1.5,1.5,0,1,0,11,5,1.5,1.5,0,0,0,9.5,3.5Zm6-1A1.5,1.5,0,1,0,17,4,1.5,1.5,0,0,0,15.5,2.5Z" transform="translate(591 486.5)"/><path class="c" d="M591,489.6s12,9.4,12.5,17.3c0,0,11.8-17.6,6.1-23.4C609.6,483.5,592.6,483.8,591,489.6Z" transform="translate(-1 4)"/></g></svg>