<svg xmlns="http://www.w3.org/2000/svg" xmlns:xlink="http://www.w3.org/1999/xlink" viewBox="387.549 465.09 81.91 81.91"><defs><style>.a{fill:url(#a);}.b,.e{fill:none;}.b,.c{stroke:#fff;}.c{fill:#fff;}.d{stroke:none;}.f{filter:url(#b);}</style><linearGradient id="a" x1="1" y1="-0.103" x2="-0.109" y2="1" gradientUnits="objectBoundingBox"><stop offset="0" stop-color="#ff0035"/><stop offset="1" stop-color="#ffa75a"/></linearGradient><filter id="b" x="387.549" y="465.09" width="81.91" height="81.91" filterUnits="userSpaceOnUse"><feOffset dy="6" input="SourceAlpha"/><feGaussianBlur stdDeviation="3" result="c"/><feFlood flood-opacity="0.161"/><feComposite operator="in" in2="c"/><feComposite in="SourceGraphic"/></filter></defs><g class="f" transform="matrix(1, 0, 0, 1, 0, 0)"><circle class="a" cx="31.955" cy="31.955" r="31.955" transform="translate(396.55 468.09)"/></g><g class="b" transform="translate(413 501)"><ellipse class="d" cx="15" cy="3.5" rx="15" ry="3.5"/><ellipse class="e" cx="15" cy="3.5" rx="14.5" ry="3"/></g><path class="b" d="M417.1,502.4s-3.4-4.4,0-10.3c0,0,9.8-13.7,19.2-5.6,0,0,9.3,8.1,4.2,16.7C440.5,503.2,422.5,506.1,417.1,502.4Z" transform="translate(-1 1)"/><path class="b" d="M416.365,494.63a6,6,0,0,1,0-5.965s5.035-7.934,9.864-3.243C426.229,485.422,419.139,496.772,416.365,494.63Z" transform="translate(3.428 4.281)"/><path class="c" d="M420.2,507.6a17.012,17.012,0,0,0,7.5,2.1,11.258,11.258,0,0,0,7.4-2.7s-1.1.8-6.5.6S420.2,507.6,420.2,507.6Z" transform="translate(0.3)"/></svg>