<svg xmlns="http://www.w3.org/2000/svg" xmlns:xlink="http://www.w3.org/1999/xlink" viewBox="474.599 465.09 81.91 81.91"><defs><style>.a{fill:url(#a);}.b{fill:none;stroke:#fff;}.c{filter:url(#b);}</style><linearGradient id="a" x1="1" y1="-0.103" x2="-0.109" y2="1" gradientUnits="objectBoundingBox"><stop offset="0" stop-color="#ff0035"/><stop offset="1" stop-color="#ffa75a"/></linearGradient><filter id="b" x="474.599" y="465.09" width="81.91" height="81.91" filterUnits="userSpaceOnUse"><feOffset dy="6" input="SourceAlpha"/><feGaussianBlur stdDeviation="3" result="c"/><feFlood flood-opacity="0.161"/><feComposite operator="in" in2="c"/><feComposite in="SourceGraphic"/></filter></defs><g class="c" transform="matrix(1, 0, 0, 1, 0, 0)"><circle class="a" cx="31.955" cy="31.955" r="31.955" transform="translate(483.6 468.09)"/></g><g transform="translate(496.77 490.128)"><path class="b" d="M39.065,1.4A12.976,12.976,0,0,1,26.047,14.22H13.52A13.02,13.02,0,0,1,.5,1.2C4.7-6.067,34.522-6.469,39.065,1.4Z" transform="translate(-0.39 4.535)"/><path class="b" d="M18.242.5C28.379.172,38.077,3.493,38.077,6.232s-10.1,4.187-19.835,4.187S-.6,8.971-.6,6.232,8.1.833,18.242.5Z" transform="translate(0.6 -0.479)"/></g></svg>